<svg width="23" height="22" viewBox="0 0 23 22" fill="none" xmlns="http://www.w3.org/2000/svg">
<path d="M11.4834 19.6899C11.1438 19.6941 10.8068 19.6306 10.492 19.5031C10.1773 19.3756 9.89105 19.1867 9.65006 18.9474L3.27923 12.5308C2.52137 11.79 1.97039 10.864 1.68095 9.84449C1.39151 8.82503 1.37368 7.7476 1.62923 6.71911C1.90025 5.7255 2.42194 4.81815 3.14428 4.08402C3.86663 3.34989 4.76542 2.81359 5.75452 2.52652C6.74362 2.23945 7.78987 2.21123 8.79301 2.44457C9.79614 2.67791 10.7225 3.16499 11.4834 3.85911C12.2443 3.16499 13.1707 2.67791 14.1738 2.44457C15.1769 2.21123 16.2232 2.23945 17.2123 2.52652C18.2014 2.81359 19.1002 3.34989 19.8225 4.08402C20.5449 4.81815 21.0665 5.7255 21.3376 6.71911C21.5983 7.75672 21.5804 8.84476 21.2859 9.87327C20.9913 10.9018 20.4305 11.8343 19.6601 12.5766L13.2434 18.9933C12.7674 19.442 12.1376 19.6914 11.4834 19.6899ZM7.42256 3.66661C6.43087 3.66661 5.46592 3.98826 4.67256 4.58328C3.8337 5.19871 3.22919 6.08124 2.9584 7.08578C2.7609 7.88857 2.77896 8.72928 3.01076 9.52285C3.24255 10.3164 3.67984 11.0347 4.2784 11.6049L10.6951 18.0216C10.9167 18.2422 11.2166 18.366 11.5292 18.366C11.8419 18.366 12.1418 18.2422 12.3634 18.0216L18.7801 11.6508C19.3712 11.0652 19.7963 10.3332 20.0121 9.52963C20.2279 8.72603 20.2266 7.87955 20.0084 7.07661C19.7381 6.07672 19.1371 5.19786 18.3034 4.58328C17.3561 3.89073 16.1833 3.57897 15.0172 3.70967C13.851 3.84038 12.7764 4.40403 12.0059 5.28911C11.9377 5.3584 11.8563 5.41343 11.7666 5.45099C11.6769 5.48855 11.5806 5.50789 11.4834 5.50789C11.3861 5.50789 11.2899 5.48855 11.2002 5.45099C11.1105 5.41343 11.0291 5.3584 10.9609 5.28911C10.5227 4.77988 9.97969 4.37128 9.36901 4.09125C8.75833 3.81122 8.09438 3.66638 7.42256 3.66661Z" fill="white"/>
</svg>
